<?xml version="1.0" encoding="UTF-8" standalone="no"?>
<!-- Created with Inkscape (http://www.inkscape.org/) -->

<svg
   width="281.07742mm"
   height="257.09433mm"
   viewBox="0 0 198.74161 181.78387"
   version="1.1"
   id="svg1"
   xml:space="preserve"
   inkscape:version="1.3 (0e150ed6c4, 2023-07-21)"
   sodipodi:docname="kraken-attacks.svg"
   inkscape:export-filename="kraken-attacks-2.svg"
   inkscape:export-xdpi="25.66"
   inkscape:export-ydpi="25.66"
   xmlns:inkscape="http://www.inkscape.org/namespaces/inkscape"
   xmlns:sodipodi="http://sodipodi.sourceforge.net/DTD/sodipodi-0.dtd"
   xmlns="http://www.w3.org/2000/svg"
   xmlns:svg="http://www.w3.org/2000/svg"><sodipodi:namedview
     id="namedview1"
     pagecolor="#505050"
     bordercolor="#ffffff"
     borderopacity="1"
     inkscape:showpageshadow="0"
     inkscape:pageopacity="0"
     inkscape:pagecheckerboard="1"
     inkscape:deskcolor="#d1d1d1"
     inkscape:document-units="mm"
     inkscape:zoom="0.5229307"
     inkscape:cx="627.23417"
     inkscape:cy="260.0727"
     inkscape:window-width="2560"
     inkscape:window-height="1378"
     inkscape:window-x="0"
     inkscape:window-y="0"
     inkscape:window-maximized="1"
     inkscape:current-layer="g3" /><defs
     id="defs1" /><g
     inkscape:label="Layer 1"
     inkscape:groupmode="layer"
     id="layer1"
     transform="translate(-2.6516861,-57.145103)"><g
       id="g3"
       transform="translate(70.009467,67.853896)"><path
         sodipodi:type="star"
         style="fill:#33ccff;fill-opacity:0.25098;stroke:#33ccff;stroke-width:2;stroke-linecap:butt;stroke-linejoin:miter;stroke-dasharray:none;stroke-opacity:0.666667;paint-order:markers stroke fill"
         id="path1"
         inkscape:flatsided="true"
         sodipodi:sides="6"
         sodipodi:cx="41.741909"
         sodipodi:cy="58.438671"
         sodipodi:r1="46.346001"
         sodipodi:r2="40.136814"
         sodipodi:arg1="0.51982316"
         sodipodi:arg2="1.0434219"
         inkscape:rounded="0"
         inkscape:randomized="0"
         d="M 81.965929,81.459965 41.916893,104.78434 1.6928733,81.763047 1.517889,35.417377 41.566925,12.093001 81.790945,35.114295 Z"
         transform="matrix(0.46386741,0,0,0.46386741,15.40928,53.846504)" /><path
         sodipodi:type="star"
         style="fill:#33ccff;fill-opacity:0.25098;stroke:#33ccff;stroke-width:2;stroke-linecap:butt;stroke-linejoin:miter;stroke-dasharray:none;stroke-opacity:0.666667;paint-order:markers stroke fill"
         id="path1-91"
         inkscape:flatsided="true"
         sodipodi:sides="6"
         sodipodi:cx="41.741909"
         sodipodi:cy="58.438671"
         sodipodi:r1="46.346001"
         sodipodi:r2="40.136814"
         sodipodi:arg1="0.51982316"
         sodipodi:arg2="1.0434219"
         inkscape:rounded="0"
         inkscape:randomized="0"
         d="M 81.965929,81.459965 41.916893,104.78434 1.6928733,81.763047 1.517889,35.417377 41.566925,12.093001 81.790945,35.114295 Z"
         transform="matrix(0.46386741,0,0,0.46386741,36.279087,17.831755)" /><path
         sodipodi:type="star"
         style="fill:#33ccff;fill-opacity:0.25098;stroke:#33ccff;stroke-width:2;stroke-linecap:butt;stroke-linejoin:miter;stroke-dasharray:none;stroke-opacity:0.666667;paint-order:markers stroke fill"
         id="path1-91-0"
         inkscape:flatsided="true"
         sodipodi:sides="6"
         sodipodi:cx="41.741909"
         sodipodi:cy="58.438671"
         sodipodi:r1="46.346001"
         sodipodi:r2="40.136814"
         sodipodi:arg1="0.51982316"
         sodipodi:arg2="1.0434219"
         inkscape:rounded="0"
         inkscape:randomized="0"
         d="M 81.965929,81.459965 41.916893,104.78434 1.6928733,81.763047 1.517889,35.417377 41.566925,12.093001 81.790945,35.114295 Z"
         transform="matrix(0.23193386,0,0,0.23193386,62.086014,4.7323802)" /><path
         sodipodi:type="star"
         style="fill:#33ccff;fill-opacity:0.25098;stroke:#33ccff;stroke-width:2;stroke-linecap:butt;stroke-linejoin:miter;stroke-dasharray:none;stroke-opacity:0.666667;paint-order:markers stroke fill"
         id="path1-91-0-3"
         inkscape:flatsided="true"
         sodipodi:sides="6"
         sodipodi:cx="41.741909"
         sodipodi:cy="58.438671"
         sodipodi:r1="46.346001"
         sodipodi:r2="40.136814"
         sodipodi:arg1="0.51982316"
         sodipodi:arg2="1.0434219"
         inkscape:rounded="0"
         inkscape:randomized="0"
         d="M 81.965929,81.459965 41.916893,104.78434 1.6928733,81.763047 1.517889,35.417377 41.566925,12.093001 81.790945,35.114295 Z"
         transform="matrix(0.23193386,0,0,0.23193386,-47.431781,67.286983)" /><path
         sodipodi:type="star"
         style="fill:#33ccff;fill-opacity:0.25098;stroke:#33ccff;stroke-width:2;stroke-linecap:butt;stroke-linejoin:miter;stroke-dasharray:none;stroke-opacity:0.666667;paint-order:markers stroke fill"
         id="path1-91-0-3-7"
         inkscape:flatsided="true"
         sodipodi:sides="6"
         sodipodi:cx="41.741909"
         sodipodi:cy="58.438671"
         sodipodi:r1="46.346001"
         sodipodi:r2="40.136814"
         sodipodi:arg1="0.51982316"
         sodipodi:arg2="1.0434219"
         inkscape:rounded="0"
         inkscape:randomized="0"
         d="M 81.965929,81.459965 41.916893,104.78434 1.6928733,81.763047 1.517889,35.417377 41.566925,12.093001 81.790945,35.114295 Z"
         transform="matrix(0.23193386,0,0,0.23193386,-67.477393,67.09928)" /><path
         sodipodi:type="star"
         style="fill:#33ccff;fill-opacity:0.25098;stroke:#33ccff;stroke-width:2;stroke-linecap:butt;stroke-linejoin:miter;stroke-dasharray:none;stroke-opacity:0.666667;paint-order:markers stroke fill"
         id="path1-91-0-3-7-4"
         inkscape:flatsided="true"
         sodipodi:sides="6"
         sodipodi:cx="41.741909"
         sodipodi:cy="58.438671"
         sodipodi:r1="46.346001"
         sodipodi:r2="40.136814"
         sodipodi:arg1="0.51982316"
         sodipodi:arg2="1.0434219"
         inkscape:rounded="0"
         inkscape:randomized="0"
         d="M 81.965929,81.459965 41.916893,104.78434 1.6928733,81.763047 1.517889,35.417377 41.566925,12.093001 81.790945,35.114295 Z"
         transform="matrix(0.23193386,0,0,0.23193386,-11.127083,128.89995)" /><path
         sodipodi:type="star"
         style="fill:#33ccff;fill-opacity:0.25098;stroke:#33ccff;stroke-width:2;stroke-linecap:butt;stroke-linejoin:miter;stroke-dasharray:none;stroke-opacity:0.666667;paint-order:markers stroke fill"
         id="path1-91-0-3-7-4-7"
         inkscape:flatsided="true"
         sodipodi:sides="6"
         sodipodi:cx="41.741909"
         sodipodi:cy="58.438671"
         sodipodi:r1="46.346001"
         sodipodi:r2="40.136814"
         sodipodi:arg1="0.51982316"
         sodipodi:arg2="1.0434219"
         inkscape:rounded="0"
         inkscape:randomized="0"
         d="M 81.965929,81.459965 41.916893,104.78434 1.6928733,81.763047 1.517889,35.417377 41.566925,12.093001 81.790945,35.114295 Z"
         transform="matrix(0.23193386,0,0,0.23193386,98.517938,67.038496)" /><path
         sodipodi:type="star"
         style="fill:#33ccff;fill-opacity:0.25098;stroke:#33ccff;stroke-width:2;stroke-linecap:butt;stroke-linejoin:miter;stroke-dasharray:none;stroke-opacity:0.666667;paint-order:markers stroke fill"
         id="path1-91-0-3-7-4-8"
         inkscape:flatsided="true"
         sodipodi:sides="6"
         sodipodi:cx="41.741909"
         sodipodi:cy="58.438671"
         sodipodi:r1="46.346001"
         sodipodi:r2="40.136814"
         sodipodi:arg1="0.51982316"
         sodipodi:arg2="1.0434219"
         inkscape:rounded="0"
         inkscape:randomized="0"
         d="M 81.965929,81.459965 41.916893,104.78434 1.6928733,81.763047 1.517889,35.417377 41.566925,12.093001 81.790945,35.114295 Z"
         transform="matrix(0.23193386,0,0,0.23193386,-21.446452,146.31294)" /><path
         sodipodi:type="star"
         style="fill:#33ccff;fill-opacity:0.25098;stroke:#33ccff;stroke-width:2;stroke-linecap:butt;stroke-linejoin:miter;stroke-dasharray:none;stroke-opacity:0.666667;paint-order:markers stroke fill"
         id="path1-91-0-3-7-4-8-8"
         inkscape:flatsided="true"
         sodipodi:sides="6"
         sodipodi:cx="41.741909"
         sodipodi:cy="58.438671"
         sodipodi:r1="46.346001"
         sodipodi:r2="40.136814"
         sodipodi:arg1="0.51982316"
         sodipodi:arg2="1.0434219"
         inkscape:rounded="0"
         inkscape:randomized="0"
         d="M 81.965929,81.459965 41.916893,104.78434 1.6928733,81.763047 1.517889,35.417377 41.566925,12.093001 81.790945,35.114295 Z"
         transform="matrix(0.23193386,0,0,0.23193386,-41.481777,146.50423)" /><path
         sodipodi:type="star"
         style="fill:#33ccff;fill-opacity:0.25098;stroke:#33ccff;stroke-width:2;stroke-linecap:butt;stroke-linejoin:miter;stroke-dasharray:none;stroke-opacity:0.666667;paint-order:markers stroke fill"
         id="path1-91-0-3-4"
         inkscape:flatsided="true"
         sodipodi:sides="6"
         sodipodi:cx="41.741909"
         sodipodi:cy="58.438671"
         sodipodi:r1="46.346001"
         sodipodi:r2="40.136814"
         sodipodi:arg1="0.51982316"
         sodipodi:arg2="1.0434219"
         inkscape:rounded="0"
         inkscape:randomized="0"
         d="M 81.965929,81.459965 41.916893,104.78434 1.6928733,81.763047 1.517889,35.417377 41.566925,12.093001 81.790945,35.114295 Z"
         transform="matrix(0.23193386,0,0,0.23193386,-12.306867,4.1148385)" /><path
         sodipodi:type="star"
         style="fill:#33ccff;fill-opacity:0.25098;stroke:#33ccff;stroke-width:2;stroke-linecap:butt;stroke-linejoin:miter;stroke-dasharray:none;stroke-opacity:0.666667;paint-order:markers stroke fill"
         id="path1-91-0-3-4-3"
         inkscape:flatsided="true"
         sodipodi:sides="6"
         sodipodi:cx="41.741909"
         sodipodi:cy="58.438671"
         sodipodi:r1="46.346001"
         sodipodi:r2="40.136814"
         sodipodi:arg1="0.51982316"
         sodipodi:arg2="1.0434219"
         inkscape:rounded="0"
         inkscape:randomized="0"
         d="M 81.965929,81.459965 41.916893,104.78434 1.6928733,81.763047 1.517889,35.417377 41.566925,12.093001 81.790945,35.114295 Z"
         transform="matrix(0.23193386,0,0,0.23193386,-22.470832,-12.97491)" /><path
         sodipodi:type="star"
         style="fill:#33ccff;fill-opacity:0.25098;stroke:#33ccff;stroke-width:2;stroke-linecap:butt;stroke-linejoin:miter;stroke-dasharray:none;stroke-opacity:0.666667;paint-order:markers stroke fill"
         id="path1-91-0-3-4-3-9"
         inkscape:flatsided="true"
         sodipodi:sides="6"
         sodipodi:cx="41.741909"
         sodipodi:cy="58.438671"
         sodipodi:r1="46.346001"
         sodipodi:r2="40.136814"
         sodipodi:arg1="0.51982316"
         sodipodi:arg2="1.0434219"
         inkscape:rounded="0"
         inkscape:randomized="0"
         d="M 81.965929,81.459965 41.916893,104.78434 1.6928733,81.763047 1.517889,35.417377 41.566925,12.093001 81.790945,35.114295 Z"
         transform="matrix(0.23193386,0,0,0.23193386,-42.494286,-13.085178)" /><path
         sodipodi:type="star"
         style="fill:#33ccff;fill-opacity:0.25098;stroke:#33ccff;stroke-width:2;stroke-linecap:butt;stroke-linejoin:miter;stroke-dasharray:none;stroke-opacity:0.666667;paint-order:markers stroke fill"
         id="path1-91-0-8"
         inkscape:flatsided="true"
         sodipodi:sides="6"
         sodipodi:cx="41.741909"
         sodipodi:cy="58.438671"
         sodipodi:r1="46.346001"
         sodipodi:r2="40.136814"
         sodipodi:arg1="0.51982316"
         sodipodi:arg2="1.0434219"
         inkscape:rounded="0"
         inkscape:randomized="0"
         d="M 81.965929,81.459965 41.916893,104.78434 1.6928733,81.763047 1.517889,35.417377 41.566925,12.093001 81.790945,35.114295 Z"
         transform="matrix(0.23193386,0,0,0.23193386,92.08452,-12.805185)" /><path
         sodipodi:type="star"
         style="fill:#33ccff;fill-opacity:0.25098;stroke:#33ccff;stroke-width:2;stroke-linecap:butt;stroke-linejoin:miter;stroke-dasharray:none;stroke-opacity:0.666667;paint-order:markers stroke fill"
         id="path1-91-0-8-1"
         inkscape:flatsided="true"
         sodipodi:sides="6"
         sodipodi:cx="41.741909"
         sodipodi:cy="58.438671"
         sodipodi:r1="46.346001"
         sodipodi:r2="40.136814"
         sodipodi:arg1="0.51982316"
         sodipodi:arg2="1.0434219"
         inkscape:rounded="0"
         inkscape:randomized="0"
         d="M 81.965929,81.459965 41.916893,104.78434 1.6928733,81.763047 1.517889,35.417377 41.566925,12.093001 81.790945,35.114295 Z"
         transform="matrix(0.23193386,0,0,0.23193386,72.181951,-12.691863)" /><path
         sodipodi:type="star"
         style="fill:#33ccff;fill-opacity:0.25098;stroke:#33ccff;stroke-width:2;stroke-linecap:butt;stroke-linejoin:miter;stroke-dasharray:none;stroke-opacity:0.666667;paint-order:markers stroke fill"
         id="path1-91-0-8-1-4"
         inkscape:flatsided="true"
         sodipodi:sides="6"
         sodipodi:cx="41.741909"
         sodipodi:cy="58.438671"
         sodipodi:r1="46.346001"
         sodipodi:r2="40.136814"
         sodipodi:arg1="0.51982316"
         sodipodi:arg2="1.0434219"
         inkscape:rounded="0"
         inkscape:randomized="0"
         d="M 81.965929,81.459965 41.916893,104.78434 1.6928733,81.763047 1.517889,35.417377 41.566925,12.093001 81.790945,35.114295 Z"
         transform="matrix(0.23193386,0,0,0.23193386,112.14072,-13.245757)" /><path
         sodipodi:type="star"
         style="fill:#33ccff;fill-opacity:0.25098;stroke:#33ccff;stroke-width:2;stroke-linecap:butt;stroke-linejoin:miter;stroke-dasharray:none;stroke-opacity:0.666667;paint-order:markers stroke fill"
         id="path1-91-1-7"
         inkscape:flatsided="true"
         sodipodi:sides="6"
         sodipodi:cx="41.741909"
         sodipodi:cy="58.438671"
         sodipodi:r1="46.346001"
         sodipodi:r2="40.136814"
         sodipodi:arg1="0.51982316"
         sodipodi:arg2="1.0434219"
         inkscape:rounded="0"
         inkscape:randomized="0"
         d="M 81.965929,81.459965 41.916893,104.78434 1.6928733,81.763047 1.517889,35.417377 41.566925,12.093001 81.790945,35.114295 Z"
         transform="matrix(0.46386741,0,0,0.46386741,-26.229226,53.846504)" /><path
         sodipodi:type="star"
         style="fill:#33ccff;fill-opacity:0.25098;stroke:#33ccff;stroke-width:2;stroke-linecap:butt;stroke-linejoin:miter;stroke-dasharray:none;stroke-opacity:0.666667;paint-order:markers stroke fill"
         id="path1-91-1-7-6"
         inkscape:flatsided="true"
         sodipodi:sides="6"
         sodipodi:cx="41.741909"
         sodipodi:cy="58.438671"
         sodipodi:r1="46.346001"
         sodipodi:r2="40.136814"
         sodipodi:arg1="0.51982316"
         sodipodi:arg2="1.0434219"
         inkscape:rounded="0"
         inkscape:randomized="0"
         d="M 81.965929,81.459965 41.916893,104.78434 1.6928733,81.763047 1.517889,35.417377 41.566925,12.093001 81.790945,35.114295 Z"
         transform="matrix(0.46386741,0,0,0.46386741,-5.1103404,89.287914)" /><path
         sodipodi:type="star"
         style="fill:#33ccff;fill-opacity:0.25098;stroke:#33ccff;stroke-width:2;stroke-linecap:butt;stroke-linejoin:miter;stroke-dasharray:none;stroke-opacity:0.666667;paint-order:markers stroke fill"
         id="path1-91-1-7-6-9"
         inkscape:flatsided="true"
         sodipodi:sides="6"
         sodipodi:cx="41.741909"
         sodipodi:cy="58.438671"
         sodipodi:r1="46.346001"
         sodipodi:r2="40.136814"
         sodipodi:arg1="0.51982316"
         sodipodi:arg2="1.0434219"
         inkscape:rounded="0"
         inkscape:randomized="0"
         d="M 81.965929,81.459965 41.916893,104.78434 1.6928733,81.763047 1.517889,35.417377 41.566925,12.093001 81.790945,35.114295 Z"
         transform="matrix(0.46386741,0,0,0.46386741,36.936187,89.637475)" /><path
         sodipodi:type="star"
         style="fill:#33ccff;fill-opacity:0.25098;stroke:#33ccff;stroke-width:2;stroke-linecap:butt;stroke-linejoin:miter;stroke-dasharray:none;stroke-opacity:0.666667;paint-order:markers stroke fill"
         id="path1-91-1-7-6-9-2"
         inkscape:flatsided="true"
         sodipodi:sides="6"
         sodipodi:cx="41.741909"
         sodipodi:cy="58.438671"
         sodipodi:r1="46.346001"
         sodipodi:r2="40.136814"
         sodipodi:arg1="0.51982316"
         sodipodi:arg2="1.0434219"
         inkscape:rounded="0"
         inkscape:randomized="0"
         d="M 81.965929,81.459965 41.916893,104.78434 1.6928733,81.763047 1.517889,35.417377 41.566925,12.093001 81.790945,35.114295 Z"
         transform="matrix(0.46386741,0,0,0.46386741,57.484869,53.846504)" /><g
         style="fill:#ffffff"
         id="g2"
         transform="matrix(0.25635552,0,0,0.25635552,18.365238,64.547587)"><path
           d="m 64.266,92.241 c 0,0 0.593,3.587 6.382,7.804 0,0 1.322,12.712 7.048,12.838 0,0 1.51,-0.063 1.322,-1.385 -0.16,-1.123 -0.503,-2.769 0.629,-3.272 1.519,-0.675 4.216,-0.063 4.279,2.517 0.063,2.58 0,6.167 -5.16,7.111 0,0 -4.594,0.629 -6.923,-2.643 -2.329,-3.272 -6.697,-13.656 -7.578,-15.293 -0.881,1.636 -5.25,12.02 -7.578,15.293 -2.328,3.273 -6.923,2.643 -6.923,2.643 -5.16,-0.944 -5.223,-4.531 -5.16,-7.111 0.063,-2.58 2.76,-3.193 4.279,-2.517 1.133,0.503 0.79,2.149 0.629,3.272 -0.189,1.322 1.322,1.385 1.322,1.385 5.727,-0.126 7.048,-12.838 7.048,-12.838 5.792,-4.217 6.384,-7.804 6.384,-7.804 z m 9.041,-70.44 -0.101,-3.707 c -4.6,-5.16 -8.952,-7.997 -8.952,-7.997 0,0 -19.572,12.76 -19.572,33.371 0,15.379 6.964,21.183 6.964,21.183 0,0 1.451,2.902 -2.176,4.933 0,0 0.58,4.498 2.902,7.254 0,0 -1.161,1.886 -3.917,1.596 C 45.698,78.144 37.863,76.258 38.589,67.407 39.315,58.556 41.781,53.478 40.91,46.514 40.039,39.55 36.121,32.44 29.883,32.73 c -6.239,0.29 -10.31,5.039 -10.446,9.141 -0.145,4.353 3.047,7.69 6.384,7.69 3.337,0 4.208,-1.741 4.062,-2.757 -0.145,-1.016 -0.435,-1.886 -2.467,-2.031 -2.032,-0.145 -2.902,-0.871 -2.902,-2.467 0,-1.596 1.016,-3.627 4.643,-3.482 3.627,0.145 5.949,6.819 5.513,10.011 -0.435,3.192 -3.627,14.654 -3.047,18.716 0.58,4.063 1.596,13.348 14.074,16.685 0,0 6.529,1.596 8.996,-1.161 0,0 -1.016,2.902 0.58,5.368 0,0 0.913,5.208 -5.513,7.545 -4.788,1.741 -12.913,2.321 -13.783,-2.321 0,0 -0.419,-4.597 2.612,-4.063 2.467,0.435 3.047,2.467 2.176,4.498 0,0 2.612,2.612 5.368,0.145 0,0 1.628,-9.192 -7.98,-9.576 -7.254,-0.29 -7.69,7.254 -7.69,8.56 0,1.306 -0.145,8.27 12.333,9.286 12.478,1.016 18.267,-8.27 21.458,-14.074 3.192,5.804 8.981,15.089 21.458,14.074 12.477,-1.015 12.333,-7.98 12.333,-9.286 0,-1.306 -0.435,-8.85 -7.69,-8.56 -9.608,0.384 -7.98,9.576 -7.98,9.576 2.757,2.467 5.368,-0.145 5.368,-0.145 -0.871,-2.031 -0.29,-4.063 2.176,-4.498 3.031,-0.535 2.612,4.063 2.612,4.063 -0.871,4.643 -8.996,4.062 -13.783,2.321 -6.426,-2.337 -5.513,-7.545 -5.513,-7.545 1.596,-2.467 0.58,-5.368 0.58,-5.368 2.467,2.757 8.996,1.161 8.996,1.161 C 95.288,80.9 96.304,71.614 96.884,67.552 97.464,63.49 94.272,52.027 93.837,48.836 93.402,45.644 95.723,38.97 99.35,38.825 c 3.627,-0.145 4.643,1.886 4.643,3.482 0,1.596 -0.871,2.321 -2.902,2.467 -2.031,0.146 -2.321,1.016 -2.467,2.031 -0.145,1.016 0.725,2.757 4.062,2.757 3.337,0 6.529,-3.337 6.384,-7.69 -0.137,-4.101 -4.208,-8.85 -10.446,-9.141 -6.239,-0.29 -10.156,6.819 -11.027,13.783 -0.871,6.964 1.596,12.042 2.321,20.893 0.725,8.85 -7.109,10.737 -9.866,11.027 -2.757,0.29 -3.917,-1.596 -3.917,-1.596 2.321,-2.757 2.902,-7.254 2.902,-7.254 -3.627,-2.031 -2.176,-4.933 -2.176,-4.933 0,0 6.964,-5.804 6.964,-21.183 0,-8.702 -3.489,-16.004 -7.521,-21.538 z M 60.968,73.865 59.08,76.886 c 0,0 -4.909,-2.895 -4.657,-5.286 0.252,-2.391 1.007,-2.266 1.385,-2.266 0.378,0 5.16,4.531 5.16,4.531 z m 12.199,-4.531 c 0.378,0 1.133,-0.126 1.385,2.266 0.252,2.391 -4.657,5.286 -4.657,5.286 l -1.888,-3.021 c 0,0 4.782,-4.531 5.16,-4.531 z M 19.621,91.109 c -0.378,-4.405 6.356,-9.566 7.174,-10.321 0.818,-0.755 0.532,-1.569 0.126,-2.266 -0.441,-0.755 -1.762,-1.007 -3.021,-0.755 -1.441,0.288 -10.069,4.909 -9.377,14.223 0.692,9.314 8.685,14.537 15.607,14.412 6.923,-0.126 8.37,-2.266 8.37,-2.266 -2.014,-0.441 -5.853,-2.958 -5.853,-2.958 -8.306,0.377 -12.649,-5.664 -13.026,-10.069 z m 88.758,0 c 0.378,-4.405 -6.356,-9.566 -7.174,-10.321 -0.818,-0.755 -0.532,-1.569 -0.126,-2.266 0.441,-0.755 1.762,-1.007 3.021,-0.755 1.441,0.288 10.069,4.909 9.377,14.223 -0.692,9.314 -8.685,14.537 -15.607,14.412 -6.923,-0.126 -9.086,-1.825 -9.086,-1.825 2.014,-0.441 6.545,-2.769 6.545,-2.769 8.307,0.377 12.673,-6.294 13.05,-10.699 z"
           id="path1-9"
           style="fill:#ffffff" /></g></g><g
       id="g4"><path
         sodipodi:type="star"
         style="fill:#33ccff;fill-opacity:0.25098;stroke:#33ccff;stroke-width:2;stroke-linecap:butt;stroke-linejoin:miter;stroke-dasharray:none;stroke-opacity:0.666667;paint-order:markers stroke fill"
         id="path1-91-1"
         inkscape:flatsided="true"
         sodipodi:sides="6"
         sodipodi:cx="41.741909"
         sodipodi:cy="58.438671"
         sodipodi:r1="46.346001"
         sodipodi:r2="40.136814"
         sodipodi:arg1="0.51982316"
         sodipodi:arg2="1.0434219"
         inkscape:rounded="0"
         inkscape:randomized="0"
         d="M 81.965929,81.459965 41.916893,104.78434 1.6928733,81.763047 1.517889,35.417377 41.566925,12.093001 81.790945,35.114295 Z"
         transform="matrix(0.46386742,0,0,0.46386742,64.130843,85.293039)" /><text
         xml:space="preserve"
         style="font-style:normal;font-weight:normal;font-size:10.5833px;line-height:1.25;font-family:sans-serif;fill:#000000;fill-opacity:1;stroke:none;stroke-width:0.264583"
         x="73.828102"
         y="114.24861"
         id="text3"><tspan
           id="tspan3"
           style="font-style:normal;font-variant:normal;font-weight:normal;font-stretch:normal;font-size:7.05556px;font-family:Sans;-inkscape-font-specification:'Sans, Normal';font-variant-ligatures:normal;font-variant-caps:normal;font-variant-numeric:normal;font-variant-east-asian:normal;fill:#ffffff;stroke-width:0.264583"
           x="73.828102"
           y="114.24861"
           sodipodi:role="line">Ports</tspan></text><text
         xml:space="preserve"
         style="font-style:normal;font-weight:normal;font-size:10.5833px;line-height:1.25;font-family:sans-serif;fill:#000000;fill-opacity:1;stroke:none;stroke-width:0.264583"
         x="69.292099"
         y="187.73415"
         id="text3-9"><tspan
           id="tspan3-7"
           style="font-style:normal;font-variant:normal;font-weight:normal;font-stretch:normal;font-size:7.05556px;font-family:Sans;-inkscape-font-specification:'Sans, Normal';font-variant-ligatures:normal;font-variant-caps:normal;font-variant-numeric:normal;font-variant-east-asian:normal;fill:#ffffff;stroke-width:0.264583"
           x="69.292099"
           y="187.73415"
           sodipodi:role="line">Domains</tspan></text><text
         xml:space="preserve"
         style="font-style:normal;font-weight:normal;font-size:10.5833px;line-height:1.25;font-family:sans-serif;fill:#000000;fill-opacity:1;stroke:none;stroke-width:0.264583"
         x="112.5867"
         y="115.31812"
         id="text3-9-8"><tspan
           id="tspan3-7-3"
           style="font-style:normal;font-variant:normal;font-weight:normal;font-stretch:normal;font-size:7.05556px;font-family:Sans;-inkscape-font-specification:'Sans, Normal';font-variant-ligatures:normal;font-variant-caps:normal;font-variant-numeric:normal;font-variant-east-asian:normal;fill:#ffffff;stroke-width:0.264583"
           x="112.5867"
           y="115.31812"
           sodipodi:role="line">Services</tspan></text><text
         xml:space="preserve"
         style="font-style:normal;font-weight:normal;font-size:10.5833px;line-height:1.25;font-family:sans-serif;fill:#000000;fill-opacity:1;stroke:none;stroke-width:0.264583"
         x="136.62531"
         y="151.71799"
         id="text3-9-8-6"><tspan
           id="tspan3-7-3-4"
           style="font-style:normal;font-variant:normal;font-weight:normal;font-stretch:normal;font-size:7.05556px;font-family:Sans;-inkscape-font-specification:'Sans, Normal';font-variant-ligatures:normal;font-variant-caps:normal;font-variant-numeric:normal;font-variant-east-asian:normal;fill:#ffffff;stroke-width:0.264583"
           x="136.62531"
           y="151.71799"
           sodipodi:role="line">Other</tspan></text><text
         xml:space="preserve"
         style="font-style:normal;font-weight:normal;font-size:10.5833px;line-height:1.25;font-family:sans-serif;fill:#000000;fill-opacity:1;stroke:none;stroke-width:0.264583"
         x="53.252548"
         y="151.40929"
         id="text4"><tspan
           sodipodi:role="line"
           id="tspan4"
           style="font-style:normal;font-variant:normal;font-weight:normal;font-stretch:normal;font-size:7.05556px;font-family:sans-serif;-inkscape-font-specification:'sans-serif, Normal';font-variant-ligatures:normal;font-variant-caps:normal;font-variant-numeric:normal;font-variant-east-asian:normal;fill:#ffffff;fill-opacity:1;stroke-width:0.264583"
           x="53.252548"
           y="151.40929">Hosts</tspan></text></g></g></svg>
