<?xml version="1.0" encoding="UTF-8"?>
<!DOCTYPE svg  PUBLIC '-//W3C//DTD SVG 1.1//EN'  'http://www.w3.org/Graphics/SVG/1.1/DTD/svg11.dtd'>
<!-- Uploaded to: SVG Repo, www.svgrepo.com, Generator: SVG Repo Mixer Tools -->
<svg fill="#000000" width="800px" height="800px" viewBox="0 0 128 128" enable-background="new 0 0 128 128" version="1.1" xml:space="preserve" xmlns="http://www.w3.org/2000/svg">
		<path d="m113.09 34.759c-11.596-1.054-20.633 8.434-22.59 10.392s-4.999 9.322-4.217 13.102c0.904 4.367 2.861 4.066 1.355 15.06s-14.91 18.223-17.922 22.741-2.108 10.241-2.108 10.241c5.271 0.301 5.12-5.271 13.404-6.777 6.547-1.19 15.512-3.012 22.741-9.789 6.131-5.748 8.584-18.373 7.078-26.807s2.861-16.717 3.765-18.374 6.175-5.572 6.175-5.572 3.916-3.163-7.681-4.217z"/>
		<path d="m88.392 41.385c-1.205-5.422 0.904-12.651 0.904-12.651-4.819-1.807-12.5 6.627-13.855 9.337-1.355 2.711 5.12 10.392 5.12 10.392s8.302-4.957 7.831-7.078z"/>
		<path d="m72.88 86.566c7.363-6.588 8.735-11.145 9.639-18.675s-5.12-15.663-9.488-24.247c-4.367-8.584-9.491-23.642-9.491-23.642s-4.516 15.25-8.536 24.003-9.713 17.12-8.508 24.608c1.204 7.489 2.757 11.987 10.379 18.274 2.962 2.443 4.448 1.932 5.743 4.141 1.294 2.209 1.808 3.247 2.41 3.223 0.602 0 1.074-1.058 2.279-3.317s2.711-1.808 5.573-4.368z"/>
		<path d="m39.145 73.313c-1.506-10.994 0.452-10.693 1.355-15.06 0.782-3.78-2.259-11.145-4.217-13.102s-10.994-11.446-22.59-10.392-7.681 4.217-7.681 4.217 5.271 3.916 6.175 5.572c0.904 1.657 5.271 9.94 3.765 18.374s0.947 21.059 7.078 26.807c7.229 6.777 16.195 8.599 22.741 9.789 8.283 1.506 8.133 7.078 13.404 6.777 0 0 0.904-5.723-2.108-10.241-3.013-4.518-16.416-11.747-17.922-22.741z"/>
		<path d="m38.392 41.385c-0.471 2.12 7.831 7.078 7.831 7.078s6.476-7.681 5.12-10.392c-1.355-2.711-9.036-11.145-13.855-9.337 0 1e-3 2.108 7.23 0.904 12.651z"/>
</svg>