<?xml version="1.0" encoding="UTF-8"?>
<!-- Uploaded to: SVG Repo, www.svgrepo.com, Generator: SVG Repo Mixer Tools -->
<svg fill="#000000" width="800px" height="800px" viewBox="0 0 33.866668 33.866668" version="1.1" xmlns="http://www.w3.org/2000/svg">
 <path d="m16.643 1.4178s-0.0885 0.57481 0.08842 2.3439c-5.8821-2.4324-8.3586-1.6363-14.02 0.79611 16.717-1.9902 20.565 8.1376 20.565 8.1376s-0.53075-0.221-1.0172-0.5748c-0.13268 0.26536-1.7248 0.90652-2.6536 0.42003-0.82659-0.49622-0.96205-0.97432-0.92865-1.769 0.0339-0.80645 0.79611-1.6584 0.79611-1.6584s-3.0074-3.1843-8.4914-3.4497c-5.484-0.26536-7.8136 4.9023-7.8136 4.9023s0.81485-0.11481 2.0642 0.09526c-2.3882 3.3612-1.8133 8.2703-1.8133 8.2703s0.43128-0.66336 1.3711-1.4152c0.26536 3.1401 2.2997 5.7051 4.6879 8.3587-0.35381-1.1056-0.088489-2.2113 0.30955-3.4497-4.9975-4.688-4.2015-8.0049-3.0958-10.216-1.1499 5.086 1.2384 7.3414 3.8035 9.1989 2.5651 1.8575 3.3547 3.9993 3.4386 4.8428 0.15798 1.5885-0.32796 2.3366-0.88453 2.8195-0.71008 0.61604-1.4041 0.82912-2.8968 1.3046 1.1789 0.98546 3.2486 0.64821 4.1774 0.33862-0.06635 0.71868-0.57291 1.3642-1.17 1.6738 2.6536 0.61916 13.566-0.27647 12.24-6.7335-1.3268-6.457-8.6683-9.1107-9.4643-9.3318-0.53071 1.0172-0.92879 1.5037-2.1229 2.8747-1.4595-0.92875-2.167-4.5995-2.167-4.5995s-2.0788-0.26529-3.4056-0.39797c-0.247-0.92182 2.4324-3.0958 2.4324-3.0958l-1.2382-1.4152h3.0958v0.46432l-1.5259 0.02207s0.19904 0.5086 0.50862 0.88452c-1.1057 0.75184-1.9018 2.3883-1.9018 2.3883s1.3269 0.22106 2.919 0.39796c-0.44226 1.5037 0.48639 2.5208 1.3709 3.7149 0.66339-0.79607 2.3469-3.0422 5.7494-2.742 3.0074 0.26536 3.538 2.919 4.5995 4.5553 1.2826-0.57494 2.6979-0.5749 3.0517-0.53068 0.35381 0.04423 0.48649 0.13262 1.5479 2.3881 3.9803-3.1401 1.6805-7.8722 0.70752-9.3316-0.39804 1.6806-2.6977 1.592-2.6977 1.592l-4.6438-7.2973-0.088423 1.3711zm11.269 12.97h1.6262s0.07027 1.7199-0.12519 2.1265c-0.32836-0.7349-0.79742-1.3994-1.5011-2.1265z"/>
</svg>