<?xml version="1.0" encoding="UTF-8"?>
<!DOCTYPE svg  PUBLIC '-//W3C//DTD SVG 1.1//EN'  'http://www.w3.org/Graphics/SVG/1.1/DTD/svg11.dtd'>
<!-- Uploaded to: SVG Repo, www.svgrepo.com, Generator: SVG Repo Mixer Tools -->
<svg fill="#000000" width="800px" height="800px" viewBox="0 0 128 128" enable-background="new 0 0 128 128" version="1.1" xml:space="preserve" xmlns="http://www.w3.org/2000/svg">
	<path d="m101 18.613c-2.504-0.668-4.32 0.346-5.961 2.592-2.969 4.063 0.778 8.553 0.778 8.553s1.037-3.888 3.11-3.888 10.108 6.479 10.108 22.29-5.961 21.512-9.071 21.512-5.875-3.888-4.665-7.516c1.246-3.738-1.296-11.404-5.702-11.922l-0.826-4.68s2.316-3.42 1.927-5.817-4.176-5.647-4.777-7.715c-1.259-4.332-3.214-9.578-7.007-13.216-0.509-0.488 2.906-2.006 0.801-4.047-2.106-2.041-9.36-1.667-9.36-1.667-1.868-0.613-3.921-0.957-6.175-0.957-0.34-0.162-1.409-4.665-2.64-4.114s-5.84 6.007-5.84 6.007c-7.335 3.568-11.361 11.515-13.244 17.995-0.601 2.069-4.38 5.318-4.769 7.715s1.931 5.817 1.931 5.817l-0.824 4.68c-4.406 0.518-6.947 8.184-5.701 11.922 1.209 3.629-1.555 7.516-4.665 7.516s-9.071-5.702-9.071-21.512 8.035-22.29 10.108-22.29 3.11 3.888 3.11 3.888 3.747-4.49 0.778-8.553c-1.642-2.246-3.457-3.26-5.961-2.592-2.591 0.69-19.438 11.662-19.179 34.729 0.156 13.874 3.197 20.562 7.991 25.616 0 0 1.728 2.505 5.097 1.987s11.965-11.361 24.32-10.151l0.432-4.233s1.49-2.203 2.462 0l0.13 5.637s7.646 16.717 16.199 20.864l3.369 2.073s1.31 0.832 0.194 2.462c-0.842 1.231-2.916-0.713-2.916-0.713s-3.175-2.721-4.341-1.361c-1.166 1.361 1.037 10.173-0.778 10.95s-2.592 0.648-2.916 0-0.713-12.246-0.713-12.246-5.961-18.791-14.968-19.374-16.91 6.934-17.104 12.312 2.721 13.801 10.367 13.737c7.646-0.065 8.312-4.523 9.007-7.128 0.778-2.916 0.454-7.322-2.073-7.581 0 0-1.037-0.194-1.814 2.333 0 0-0.583 1.166-1.62 1.231-1.815 0.113-4.212-1.49-3.499-3.758 0.844-2.687 2.592-4.73 5.702-3.758 4.147 1.296 7.387 6.22 6.868 11.663-0.518 5.443-8.942 9.33-8.035 16.588 0.907 7.257 4.147 11.404 18.791 11.339s25.205-23.715 26.436-32.203-3.24-24.039-3.24-24.039-0.389-2.333 1.944 0 4.795 20.864 4.795 20.864l-0.259 0.065s9.59-0.259 14.255-1.555 17.624-8.553 17.883-31.62c0.259-23.068-16.587-34.04-19.179-34.731zm-36.804 24.428s4.406 0.583 5.443 3.823c0 0-4.853-0.956-5.443-0.888-0.59-0.068-5.443 0.888-5.443 0.888 1.037-3.24 5.443-3.823 5.443-3.823zm-11.404 8.959h-8.294s-2.246-6.911-0.518-8.985c1.728-2.073 11.577 6.985 8.812 8.985zm19.881 4.132c-2.751-4.158-8.476-3.774-8.476-3.774s-5.726-0.384-8.476 3.774c-1.358 2.053-2.387-0.066-1.728-1.258 0.603-1.091 3.786-4.9 10.205-4.9s9.602 3.809 10.205 4.9c0.656 1.192-0.373 3.311-1.73 1.258zm11.221-4.132h-8.294c-2.765-2 7.084-11.058 8.812-8.985 1.728 2.074-0.518 8.985-0.518 8.985z"/>
</svg>