<?xml version="1.0" encoding="UTF-8"?>
<!-- Uploaded to: SVG Repo, www.svgrepo.com, Generator: SVG Repo Mixer Tools -->
<svg fill="#000000" width="800px" height="800px" viewBox="0 0 33.867 33.867" version="1.1" xmlns="http://www.w3.org/2000/svg">
 <g>
  <path d="m16.455 1.4094c0-2e-7 -2.9253-0.034011-5.5115 1.058-2.5005 1.0558-4.2537 4.3297-5.3449 3.8415-1.0578-0.47323-0.36169-1.2806 1.3085-3.1179-4.1199 2.0599-5.9689 5.6845-3.948 11.599 1.578 4.6186 7.3341 8.6681 12.994 10.673 1.4744 0.52228 1.8379 2.8369 1.8379 2.8369s-0.77041-1.5676-1.9329-2.2898c-1.4203-0.88243-2.5006-0.88661-5.6386-2.3313-2.7426-1.2627-4.4739-3.5597-4.4739-3.5597 4e-7 0 0.49163 1.1659-0.17647 1.3886-0.66809 0.2227-1.7329-0.23446-2.9049-3.5631 0.32449 3.4642 1.3601 4.1443 3.101 5.8456 2.2076 2.1574 10.913 3.9605 9.9795 6.0261-0.97502 2.1577-7.7392-0.75329-7.7392-0.75329 5.8647 3.7948 8.3663 3.5276 10.059 3.252 1.6928-0.27557 4.7245-1.1218 5.0789-4.9798 0.35431-3.858-3.806-4.803-6.1809-7.1452-1.8735-1.8476-1.9351-2.7295-1.9699-4.1498-0.03944-1.611 1.0663-2.9211 2.687-2.8559 2.1724 0.08749 2.4163 1.3579 2.5708 2.0999 0.16408 0.78767-0.01233 2.029-0.82998 2.5885 0.52273 0.57305 1.2295 0.63124 1.9289 0.34343 0.79819-0.3285 1.1463-1.051 1.2019-1.8583 0.78002-0.58598 1.4578-2.0571 0.81176-4.2153-0.69471-2.321-2.6211-3.5193-2.816-5.8619-0.06884-0.8276-0.29828-2.9523 2.4298-4.6782-4.4919 0.87028-4.8798 4.7617-4.8798 4.7617s-0.41746-0.36191-0.27828-1.6981c-0.86295 1.0021-0.61222 2.9509-0.61222 2.9509s-1.3659-0.12343-3.039 1.156c3.11-0.45273 4.5576 0.30068 5.5704 1.2798 1.8696 1.8075 2.0671 4.1136 2.0671 4.1136s-0.25619 0.06902-0.39398-0.11797c-0.15747-0.31494-0.52165-0.03923-0.71849-0.33449-0.15747-0.21652-0.08467-1.1006-0.32088-1.8873-0.09606-0.31994-0.38997-0.94404-1.0122-1.4934-0.8804-0.77732-2.2361-1.4634-4.5188-1.352-2.2826 0.11135-4.3708 3.396-4.0646 7.3489 0.3616 4.6679 4.7468 6.4911 4.7468 6.4911s1.5181 0.71327 0.17543-0.85487c1.3233 0.42233 2.9838 2.2137 3.0952 5.4984-1.0021-3.7302-3.1165-3.9064-4.8954-5.1214-1.464-0.99994-5.7746-3.1484-6.1842-10.153-0.46924-8.0243 8.7409-10.782 8.7409-10.782zm8.8539 3.2304s-1.3583 2.8937 0.92498 6.8698c-1.181-0.98419-2.185-0.86614-2.185-0.86614s3.5641 3.3598 2.5592 6.7514c-1.371 4.6277-4.8229 5.4133-4.8229 5.4133s5.6689 4.724-1.2992 9.3496c3.7596-0.86609 8.1098-2.2831 10.059-7.9914-1.1023 1.5353-3.7299 4.335-4.409 3.5428-0.78996-0.92153 3.7742-3.2316 4.8223-5.2258 1.2935-2.4611 1.1812-7.8245-2.0272-11.072 0.96451 3.051 0.96474 5.5377 0.23624 7.4802-0.58371 1.5564-1.2834 3.0954-2.2637 4.1336-1.0891 1.1534-1.9685 2.4208-2.1653 3.1688 0.07873-1.5747 0.60106-2.5384 1.516-3.6413 2.0778-2.5049 3.1922-6.2049 2.6373-8.2477-0.55115-2.0471-1.5671-3.7259-2.972-5.7473-0.69756-1.0037-0.61028-3.9175-0.61028-3.9175z" fill-opacity=".99048"/>
 </g>
</svg>