<?xml version="1.0" encoding="UTF-8"?>
<!-- Uploaded to: SVG Repo, www.svgrepo.com, Generator: SVG Repo Mixer Tools -->
<svg width="800px" height="800px" viewBox="0 0 128 128" fill="none" xmlns="http://www.w3.org/2000/svg">
 <g clip-path="url(#clip0)" fill="#000000">
  <path d="m38.02 86.703c5.9389 2.8716 14.719 6.3748 19.514 7.6458-1.5951 1.7242-3.1997 3.4867-4.3724 4.8406-3.7948 4.3806-5.7624 5.0866-15.847 5.0866-6.3182 0-17.287 4.724-17.287 4.724s-1.4749-4.724-1.4405-9.4473c0.0395-5.4311 4.6819-13.081 4.6819-13.081s8.8094 0.976 14.75 0.2311z" clip-rule="evenodd" fill-rule="evenodd"/>
  <path d="m34.027 84.608c-3.5997 0.2553-7.9905 0.1691-11.838-1.0429-6.5551-2.0652-9.6886-3.7367-12.605-9.0838-0.79205-1.4521-1.0522-2.8047-1.3077-4.1337-0.2013-1.0468-0.39978-2.0789-0.85316-3.1334-2.4281-5.6475-7.9233-14.171-7.9233-14.171s6.0171-4.4246 10.084-5.8135c4.1492-1.417 11.165-1.0903 11.165-1.0903l3.3415 3.5318c-1.8213 3.9549-3.0903 7.3321-3.0903 8.9012 0 2.4399 8.033 21.823 11.246 24.805 0.3624 0.3363 0.9752 0.7545 1.7807 1.2302z" clip-rule="evenodd" fill-rule="evenodd"/>
  <path d="m39.327 26.4c-1.3449 0.7444-2.3997 1.4479-3.0642 2.0804-1.8695 1.7796-7.3667 11.188-11.225 19.183l-1.767-1.8877s-1.9977-1.4534-1.0814-9.8106c0.6118-5.5795 1.4773-13.181 3.962-14.171 2.2843-0.9099 3.9383-0.5799 6.23-0.1225 0.2011 0.0401 0.4071 0.0812 0.6188 0.1225 1.4361 0.2803 3.8903 2.2877 6.3269 4.6057z" clip-rule="evenodd" fill-rule="evenodd"/>
  <path d="m89.599 100.05c3.0908-3.0545 7.9693-9.4037 12.065-16.621 2.973-0.6688 6.961-1.6831 6.961-1.6831s3.847 6.1229 5.042 10.537c1.26 4.6541 0 12.354 0 12.354s-5.56-2.341-10.804-3.27c-3.5683-0.632-8.5148-1.046-13.264-1.317z" clip-rule="evenodd" fill-rule="evenodd"/>
  <path d="m103.1 80.808c3.051-5.8223 5.425-12.003 5.865-17.356 0.304-3.6872-1.202-8.5008-3.74-13.661 0.059-0.1283 0.113-0.2555 0.163-0.3811 1.233-3.0994 1.441-8.7205 1.441-8.7205s6.215-0.7442 10.084-1e-4c4.517 0.869 10.52 3.6495 10.804 4.7237 1.067 4.0349-1.025 8.8663-3.206 13.905-0.765 1.7674-1.541 3.5604-2.196 5.3533-2.609 7.1437-4.233 8.4403-6.06 9.8986-0.256 0.2042-0.516 0.4116-0.783 0.6387-3.378 2.8722-8.286 4.5943-12.372 5.6003z" clip-rule="evenodd" fill-rule="evenodd"/>
  <path d="m103.9 47.236c-4.315-7.9397-10.699-16.38-16.471-22.63 0.6275-0.8367 1.3373-1.5857 2.111-2.0849 0.2241-0.1446 0.4496-0.294 0.6759-0.4439 1.8893-1.2516 3.8306-2.5375 5.4466-1.3729 2.521 1.8168 9.0037 15.988 9.0037 22.164 0 1.4598-0.323 2.976-0.766 4.3674z" clip-rule="evenodd" fill-rule="evenodd"/>
  <path d="m72.235 79.21c0.8345-2.722 1.1439-4.4416 0.7211-7.2584-0.4613-3.0734-1.0598-5.062-3.2451-7.2583-2.461-2.4734-9.0143-3.2663-9.0143-3.2663s0 7.858-2.1634 8.7101c-1.0821 0.4261-7.0109-4.287-7.2115-8.7101-0.0407-0.8972 6.0251-8.7277 11.899-9.4359 1.4419-0.1739 14.945 6.8788 16.226 15.606 0.7836 5.339-0.4864 8.8003-3.2451 13.428-2.1634 3.6292-23.798 20.687-23.798 20.687s3.0494 1.895 10.817 1.088c7.4974-0.778 19.686-4.2359 21.634-5.4435 3.966-2.4587 18.029-21.049 19.11-34.114 1.082-13.065-23.437-41.976-29.927-43.187-4.3269-0.8079-30.649 7.5406-35.336 11.976-2.6845 2.5404-13.702 22.501-13.702 26.856 0 2.1775 7.2114 19.477 10.096 22.138 2.8846 2.6615 23.438 11.062 25.601 10.162 2.524-1.05 10.704-9.2543 11.538-11.976z"/>
  <path d="m72.235 79.21c0.8345-2.722 1.1439-4.4416 0.7211-7.2584-0.4613-3.0734-1.0598-5.062-3.2451-7.2583-2.461-2.4734-9.0143-3.2663-9.0143-3.2663s0 7.858-2.1634 8.7101c-1.0821 0.4261-7.0109-4.287-7.2115-8.7101-0.0407-0.8972 6.0251-8.7277 11.899-9.4359 1.4419-0.1739 14.945 6.8788 16.226 15.606 0.7836 5.339-0.4864 8.8003-3.2451 13.428-2.1634 3.6292-23.798 20.687-23.798 20.687s3.0494 1.895 10.817 1.088c7.4974-0.778 19.686-4.2359 21.634-5.4435 3.966-2.4587 18.029-21.049 19.11-34.114 1.082-13.065-23.437-41.976-29.927-43.187-4.3269-0.8079-30.649 7.5406-35.336 11.976-2.6845 2.5404-13.702 22.501-13.702 26.856 0 2.1775 7.2114 19.477 10.096 22.138 2.8846 2.6615 23.438 11.062 25.601 10.162 2.524-1.05 10.704-9.2543 11.538-11.976z"/>
 </g>
 <defs>
  <clipPath id="clip0">
   <rect width="128" height="128" fill="#ffffff"/>
  </clipPath>
 </defs>
</svg>