<?xml version="1.0" encoding="UTF-8"?>
<!-- Uploaded to: SVG Repo, www.svgrepo.com, Generator: SVG Repo Mixer Tools -->
<svg width="800px" height="800px" viewBox="0 0 128 128" fill="none" xmlns="http://www.w3.org/2000/svg">
 <g clip-path="url(#clip0)" fill="#000000">
  <path d="m17.387 12s-1.2165 16.358 0 17.449c2.2924 2.0573 7.297 2.9664 7.297 2.9664s5.0381 2.0939 3.9957 5.9328c-1.6628 6.1236-9.0461 6.3008-14.941 4.0134-5.1402-1.9946-8.6872-11.168-8.6872-11.168s-13.686 19.543 3.9963 38.912c18.479 20.241 39.786 5.5838 39.786 5.5838s-8.0761-3.1409-10.077-8.5502c-2.5171-6.8053 1.0424-11.691 1.0424-11.691l6.7758 8.3757 1.7374 0.698 30.404 38.912v1.396s-1.9558 5.825 1.3899 8.027c5.0384 3.315 12.683 3.14 12.683 3.14s2.0849-5.234 0.3475-12.563c-0.8273-3.49-4.8647-3.49-4.8647-3.49s-0.4078-0.8618-0.8687-1.2215c-0.408-0.3185-1.2162-0.5235-1.2162-0.5235l-30.057-39.959 0.6949-2.7919-7.992-9.0737s3.0369-0.9185 5.0385-1.2214c3.4217-0.5179 8.8607 0 8.8607 0s-1.3844-4.5028-2.7799-7.1543c-1.6365-3.1095-5.2121-7.3287-5.2121-7.3287l1.3899-4.5369-4.1698 1.2215s-4.1697-4.1879-8.1657-7.1543c-1.7124-1.2712-5.0384-1.7449-5.0384-1.7449s0.7301 5.0835 0 8.2012c-0.6326 2.701-2.9536 6.4563-2.9536 6.4563l-1.5636-2.4429-0.8687-12.215s-3.8486-2.475-7.2971-3.8389c-2.8155-1.1136-8.6866-2.6174-8.6866-2.6174z"/>
  <path d="m110.55 12s1.221 16.358 0 17.449c-2.301 2.0573-7.323 2.9664-7.323 2.9664s-5.056 2.0939-4.0098 5.9328c1.6688 6.1236 9.0778 6.3008 14.994 4.0134 5.159-1.9946 8.718-11.168 8.718-11.168s13.735 19.543-4.01 38.912c-18.544 20.241-39.927 5.5838-39.927 5.5838s8.1048-3.1409 10.113-8.5502c2.5261-6.8053-1.0461-11.691-1.0461-11.691l-6.7999 8.3757-1.7435 0.698-8.0673 10.288-6.1672-8.1069 6.3884-8.4631-0.6974-2.7919 8.0204-9.0737s-3.0477-0.9185-5.0563-1.2214c-3.4338-0.5179-8.8922 0-8.8922 0s1.3893-4.5028 2.7897-7.1543c1.6423-3.1095 5.2307-7.3287 5.2307-7.3287l-1.3949-4.5369 4.1846 1.2215s4.1845-4.1879 8.1947-7.1543c1.7185-1.2712 5.0563-1.7449 5.0563-1.7449s-0.7327 5.0835 0 8.2012c0.6348 2.701 2.9641 6.4563 2.9641 6.4563l1.5692-2.4429 0.8718-12.215s3.8622-2.475 7.3234-3.8389c2.825-1.1136 8.717-2.6174 8.717-2.6174z"/>
  <path d="m56.49 78.351 5.9993 7.8862-13.485 17.198v1.396s1.9627 5.825-1.3948 8.027c-5.0564 3.315-12.728 3.14-12.728 3.14s-2.0923-5.234-0.3487-12.563c0.8302-3.49 4.8819-3.49 4.8819-3.49s0.4093-0.8618 0.8718-1.2215c0.4094-0.3185 1.2205-0.5235 1.2205-0.5235l14.983-19.849z"/>
 </g>
 <defs>
  <clipPath id="clip0">
   <rect width="128" height="128" fill="#ffffff"/>
  </clipPath>
 </defs>
</svg>