<?xml version="1.0" encoding="UTF-8"?>
<!-- Uploaded to: SVG Repo, www.svgrepo.com, Generator: SVG Repo Mixer Tools -->
<svg fill="#000000" width="800px" height="800px" viewBox="0 0 33.867 33.867" version="1.1" xmlns="http://www.w3.org/2000/svg">
 <path d="m17.45 0.55049c-0.66869 0.28658-4.1076 2.643-4.3624 3.248-0.8279-0.063685-4.3437-0.5864-4.3437-0.5864l0.20384 3.5791-3.8846 4.2987 3.2159 3.6621 0.12791 1.0829c0.00436 0.0011-0.84174 0.11425-1.7831-0.06367-0.65338-0.12348-1.3717-0.79633-2.2609-1.9741-0.15921 1.9742 2.3563 7.0687 3.63 7.0368 1.1145-0.98712 1.4957-1.2666 2.1651-1.2738 1.4648-0.01591 2.9305 1.7835 3.1522 3.9489 0.16314 1.5937-0.05274 1.86-0.85974 2.0378-0.67917 0.14961-1.6874-0.44564-1.6874-0.44564s1.9743 7.101 3.9167 8.2155c0 0 1.9742-4.9675 1.7832-8.3428-0.19106-3.3753-1.465-5.3499-2.8023-7.4515-1.3374-2.1016-1.5285-3.6936-1.4012-5.4768 0.12737-1.7832 1.93-4.4804 4.7321-4.4804s5.556 3.3556 5.0685 5.8897c-0.88066 4.5777-3.4352 6.1183-4.099 8.5682-0.59997 2.2146-0.25385 5.8413 1.4315 8.8731 2.7114-3.1418 3.5024-5.9866 3.4705-7.0374-0.70054-0.03184-2.2487 0.40546-2.3246-1.1144-0.09591-1.9208 1.5079-3.4761 3.1528-3.2159 1.4876 0.23532 1.6236 0.92314 1.942 1.6874 1.4329-1.1145 4.2513-4.8401 3.8373-6.7506-0.93935 1.0667-2.03 1.7033-3.2638 1.5285-0.7782-0.11025-1.0929-0.34928-1.2102-0.98707-0.19063-1.0364 0.8913-2.1335 2.5471-2.3246 0.06369-1.2737-0.46166-2.977-1.8468-4.2666-0.16072-1.4105 0.21191-2.1508 0.44622-3.2801l-3.1207 0.15945s-4.872-4.5851-5.5726-4.7444zm-0.47776 8.438-3.3116 3.1207 3.439 4.0119 3.1207-3.7573z"/>
</svg>