<?xml version="1.0" encoding="UTF-8"?>
<!-- Uploaded to: SVG Repo, www.svgrepo.com, Generator: SVG Repo Mixer Tools -->
<svg fill="#000000" width="800px" height="800px" viewBox="0 0 33.867 33.867" version="1.1" xmlns="http://www.w3.org/2000/svg" xmlns:xlink="http://www.w3.org/1999/xlink">
 <g>
  <path d="m20.784 3.0426-0.49068 4.5796-7.0875 8.287 1.9082 2.8895s5.5464-0.87976 6.2698 4.9068c0.38164 3.0531-3.258 4.3144-5.7246 3.6528-2.7578-0.73974-4.3616-4.2525-1.5265-5.1794 2.8459-0.93039 2.9986 3.1621 2.9986 3.1621l0.92683 0.5452s1.4175-1.5265 0.81779-2.9986c-0.46226-1.1346-2.835-4.198-6.5424-4.1435-2.835 0.05452-5.452 3.6528-5.0703 6.8695 0.44618 3.7607 3.5438 4.9613 7.4692 4.9613 3.9254 0 4.8522-0.98136 4.8522-0.98136s3.1349 2.8623 3.7891 2.1535 3.1894-4.5524 3.1349-5.7518c-1.6901 0.92683-2.8895 2.5624-2.8895 2.5624l-1.1994-0.76327s4.5796-5.6155 4.198-8.1234c-0.38164-2.5079-2.2898-4.0344-5.1248-3.7073-2.835 0.32712-4.6887 1.0359-4.6887 1.0359l-0.2726-0.49068 8.4505-6.4878s-2.1808-1.5265-2.0172-4.1435c0.16356-2.6169 0.21808-3.8709 0.21808-3.8709z"/>
 </g>
</svg>